<?xml version="1.0"?>
<svg xmlns="http://www.w3.org/2000/svg" xmlns:xlink="http://www.w3.org/1999/xlink" xmlns:svgjs="http://svgjs.com/svgjs" version="1.1" width="512" height="512" x="0" y="0" viewBox="0 0 512.002 512.002" style="enable-background:new 0 0 512 512" xml:space="preserve" class=""><g><path xmlns="http://www.w3.org/2000/svg" d="m496.997 0h-57.997c-41.355 0-75 33.645-75 75v99.003c0 36.655-27.533 67-63.003 71.44v-200.441c0-8.271 6.729-15 15-15h13c8.284 0 15-6.716 15-15s-6.716-15-15-15h-146c-8.284 0-15 6.716-15 15s6.716 15 15 15h13c8.271 0 15 6.729 15 15v200.44c-35.467-4.444-62.995-34.787-62.995-71.439v-99.003c0-41.355-33.645-75-75-75h-57.997c-8.284 0-15 6.716-15 15v60c0 8.281 6.71 14.995 14.991 15l43.005.025v83.978c0 86.306 67.838 157.065 152.995 161.752v131.247c0 8.271-6.729 15-15 15h-13c-8.284 0-15 6.716-15 15s6.716 15 15 15h146c8.284 0 15-6.716 15-15s-6.716-15-15-15h-13c-8.271 0-15-6.729-15-15v-131.246c85.157-4.687 153.004-75.446 153.004-161.747l.03-84.009h42.967c8.284 0 15-6.716 15-15v-60c0-8.284-6.716-15-15-15zm-15 60h-42.962c-8.282 0-14.997 6.712-15 14.995l-.035 99.008c0 72.785-59.215 132-132 132h-6.004c-8.284 0-15 6.716-15 15v145.999c0 5.258.915 10.305 2.58 15h-35.161c1.665-4.695 2.58-9.742 2.58-15v-145.999c0-8.284-6.716-15-15-15h-5.995c-72.785 0-132-59.215-132-132v-98.969c0-8.281-6.71-14.995-14.991-15l-43.005-.025v-30.009h42.997c24.813 0 45 20.187 45 45v99.003c0 56.243 45.757 102 102 102h5.995c8.284 0 15-6.716 15-15v-173.275-42.726-14.999h30v231c0 8.284 6.716 15 15 15h6.004c56.243 0 102-45.757 102-102v-99.003c0-24.813 20.187-45 45-45h42.997z" fill="#03a9f4" data-original="#000000" style="" class=""/></g></svg>
